<?xml version="1.0" standalone="no"?><!DOCTYPE svg PUBLIC "-//W3C//DTD SVG 1.1//EN" "http://www.w3.org/Graphics/SVG/1.1/DTD/svg11.dtd"><svg t="1749455546923" class="icon" viewBox="0 0 1024 1024" version="1.1" xmlns="http://www.w3.org/2000/svg" p-id="22476" xmlns:xlink="http://www.w3.org/1999/xlink" width="200" height="200"><path d="M623.023633 641.173898a181.818695 181.818695 0 0 1-97.975308-17.834215 64.424409 64.424409 0 0 1-24.019754-45.240212 9.932981 9.932981 0 0 0-10.02328-9.842681h-0.0903c-14.177072-0.13545-28.354145-0.13545-42.576367 0-5.14709-0.541799-9.752381 3.205644-10.339329 8.352734a104.89679 104.89679 0 0 0 33.726984 82.624338 178.658201 178.658201 0 0 0 99.781305 37.564727c37.835626 4.379541 76.122751 2.754145 113.461728-4.83104a139.901517 139.901517 0 0 0 75.174603-40.499471 104.680071 104.680071 0 0 0 17.743916-99.916755 83.667302 83.667302 0 0 0-55.082893-49.032804c-57.340388-20.136861-119.331217-18.601764-177.845502-33.907584-10.15873-3.115344-22.574956-6.637037-27.089947-17.382716a38.251005 38.251005 0 0 1 12.732275-42.756967c18.376014-10.519929 39.325573-15.712169 60.455732-15.03492 28.670194-2.708995 57.566138 1.444797 84.340035 12.100176 16.299118 9.571781 27.541446 25.82575 30.79224 44.427513a10.890159 10.890159 0 0 0 10.20388 10.56508c14.086772 0.270899 28.128395 0 42.260317 0.090299 5.05679 0.586949 9.752381-2.618695 11.061729-7.540035a108.946737 108.946737 0 0 0-53.186596-94.318166c-45.014462-20.768959-94.995414-28.444444-144.163669-22.078307-36.02963 1.489947-70.433862 15.30582-97.47866 39.190124a97.52381 97.52381 0 0 0-19.459612 101.316402c10.33933 23.071605 30.295591 40.454321 54.541094 47.588007 57.204938 20.63351 119.873016 14.041623 177.574603 32.282187 11.287478 3.792593 24.380952 9.662081 27.812346 22.168607 3.747443 15.26067-0.812698 31.379189-12.100177 42.395767a133.395414 133.395414 0 0 1-80.321693 19.685361z m260.650441-378.311111C772.063492 199.74321 660.36261 136.623633 548.661728 73.594356a75.152028 75.152028 0 0 0-73.323456 0L141.544974 262.095238a69.14709 69.14709 0 0 0-36.07478 60.094533v379.620458c0.361199 25.6 14.764021 48.897354 37.429277 60.681482 31.920988 17.382716 62.984127 36.571429 95.537213 52.825397 38.061376 20.36261 83.527337 21.581658 122.627161 3.341093a95.212134 95.212134 0 0 0 44.562963-86.055732c0.22575-125.291005 0-250.582011 0.0903-375.827866 0.857848-5.37284-2.799295-10.42963-8.126985-11.287478l-1.128747-0.13545c-14.222222-0.1806-28.444444-0.1806-42.711817 0-5.19224-0.451499-9.752381 3.386243-10.15873 8.578484v0.993298c-0.1806 124.478307 0 248.956614-0.0903 373.48007 0.04515 17.608466-10.835979 33.365785-27.315697 39.551323a68.447266 68.447266 0 0 1-55.534391-7.449735l-88.764727-50.161552a10.587654 10.587654 0 0 1-6.050088-10.51993V324.176367c-0.406349-5.01164 2.438095-9.707231 7.043386-11.648677 110.888183-62.487478 221.731217-124.974956 332.619401-187.552734 3.928042-2.708995 9.120282-2.708995 13.093474 0l332.66455 187.507584c4.560141 1.986596 7.359436 6.682187 6.998237 11.648677v375.737566c0.406349 4.469841-1.986596 8.668783-6.004939 10.655379-109.172487 61.765079-218.435273 123.439859-327.743209 185.024339-5.19224 2.844444-11.377778 7.585185-17.473016 4.018342-28.670194-16.208818-56.888889-33.049735-85.468783-49.394003-2.979894-2.302646-7.043386-2.528395-10.29418-0.632099-12.551675 7.359436-25.7806 13.544974-39.506173 18.466314-6.185538 2.528395-13.815873 3.205644-18.059965 8.939682 5.417989 5.914638 12.009877 10.610229 19.369312 13.906173l100.142505 57.927337a73.052557 73.052557 0 0 0 74.136155 2.076896c111.249383-62.713228 222.543915-125.471605 333.793298-188.320282 22.665256-11.829277 37.022928-35.081481 37.429277-60.636332V322.234921a69.12 69.12 0 0 0-34.855732-59.372134z" fill="#69BAF9" p-id="22477"></path></svg>