<?xml version="1.0" standalone="no"?><!DOCTYPE svg PUBLIC "-//W3C//DTD SVG 1.1//EN" "http://www.w3.org/Graphics/SVG/1.1/DTD/svg11.dtd"><svg t="1749445919792" class="icon" viewBox="0 0 1024 1024" version="1.1" xmlns="http://www.w3.org/2000/svg" p-id="9777" xmlns:xlink="http://www.w3.org/1999/xlink" width="200" height="200"><path d="M511.994709 511.994709m-511.994709 0a511.994709 511.994709 0 1 0 1023.989419 0 511.994709 511.994709 0 1 0-1023.989419 0Z" fill="#9d8df5" p-id="9778"></path><path d="M461.512031 794.786454l42.188364 39.816122 48.264035-39.816122h89.001747c83.113808 0 157.69437 42.59796 200.957923 108.73061A509.912598 509.912598 0 0 1 511.994709 1023.989419a509.946731 509.946731 0 0 1-330.697382-121.103815 240.347383 240.347383 0 0 1 200.718992-108.09915h79.495712z" fill="#CFD4D7" p-id="9779"></path><path d="M435.195503 663.937673h149.843785v170.664903H435.195503z" fill="#E9CAB6" p-id="9780"></path><path d="M522.712465 860.424176l37.358548 161.346599a518.377577 518.377577 0 0 1-99.907235-0.375463l28.466906-160.544474 34.081781-0.426662z" fill="#4D677E" p-id="9781"></path><path d="M501.123355 817.928615H511.994709l32.306867 73.52244h-81.69729z" fill="#4D677E" p-id="9782"></path><path d="M515.749337 326.789157c62.634019 0.324263 135.507933 5.341811 163.804174 65.091594 7.901785 16.691028 6.997261 47.188846 4.625019 77.260001 5.990338-2.252777 12.765735-2.901303 20.240858-1.706649 24.405081 3.976492 33.143124 30.412486 21.333113 52.769588-11.349216 21.418445-29.354363 46.523253-48.178703 43.86088-12.612136 98.985644-84.137797 174.794994-170.477171 174.794994-86.305242 0-157.813836-75.775217-170.460106-174.658462-17.356621-1.006923-33.655119-24.097884-44.185143-43.997412-11.827078-22.357102-3.071968-48.810162 21.333113-52.752521 7.167926-1.160521 13.687325-0.614394 19.506998 1.399452-0.255997-36.454023 2.218644-73.249376 16.793427-94.975019 29.849292-44.509407 94.770221-46.966981 147.795806-47.103513z" fill="#F8DAC2" p-id="9783"></path><path d="M513.854957 666.070984c34.132981 0 47.478976-20.240858 49.339223-34.576709-7.850586-0.392529-27.357584 2.372242-49.339223 2.457574-21.845108 0.102399-46.130723-2.457575-53.059719-2.457574 0 14.14812 18.926738 34.576709 53.059719 34.576709z" fill="#FFFFFF" p-id="9784"></path><path d="M597.122363 535.853663m-19.199802 0a19.199802 19.199802 0 1 0 38.399604 0 19.199802 19.199802 0 1 0-38.399604 0Z" fill="#333333" p-id="9785"></path><path d="M560.514741 491.310123c26.79439-12.390272 50.448545-12.390272 70.160342 0.443729a6.399934 6.399934 0 0 1-6.963128 10.734822c-15.718238-10.222828-34.747374-10.222828-57.838336 0.443729a6.399934 6.399934 0 1 1-5.358878-11.62228z" fill="#333333" p-id="9786"></path><path d="M426.45746 535.853663m-19.199802 0a19.199802 19.199802 0 1 0 38.399604 0 19.199802 19.199802 0 1 0-38.399604 0Z" fill="#333333" p-id="9787"></path><path d="M389.849838 491.310123c26.79439-12.390272 50.448545-12.390272 70.160342 0.443729a6.399934 6.399934 0 0 1-6.963128 10.734822c-15.718238-10.222828-34.747374-10.222828-57.838336 0.443729a6.399934 6.399934 0 1 1-5.358878-11.62228z" fill="#333333" p-id="9788"></path><path d="M754.714335 283.628003c-22.852031 40.089186-39.764922 60.125245-50.704543 60.125245 8.123649 34.132981 12.868134 127.350151-31.982603 141.276407-12.390272-13.089998-20.411522-86.015111-20.411522-100.692293-32.085002 15.240376-113.83349 31.675406-155.612259 23.466424-27.869579-5.478343-72.242453-17.732083-133.118624-36.744154l-11.775879 113.970023c-28.961834-12.287873-45.908859-26.999188-50.789875-44.151011-7.338591-25.719201-17.322488-84.240196 0-97.10833 0-60.142312 36.863619-173.105411 158.581828-173.105411 121.684076 0 139.02363 62.275623 179.590678 81.373026 27.033321 12.714535 65.774254 23.261626 116.222799 31.573007z" fill="#40221B" p-id="9789"></path><path d="M590.585897 759.236955L511.994709 817.928615l32.306867 73.52244 94.18996-95.469947zM420.774319 759.236955l80.349036 58.69166-38.519069 73.52244-89.735606-95.469947z" fill="#FFFFFF" p-id="9790"></path></svg>